<svg width="512" height="512" viewBox="0 0 512 512" fill="none" xmlns="http://www.w3.org/2000/svg">
<rect width="512" height="512" rx="70" fill="#1E1E1E"/>
<path d="M345.15 199C343.292 198.993 341.485 198.406 339.99 197.326L327.554 188.475C326.522 187.739 325.277 187.342 324 187.342C322.723 187.342 321.478 187.739 320.446 188.475L308.01 197.326C306.51 198.394 304.704 198.969 302.85 198.969C300.996 198.969 299.19 198.394 297.69 197.326C296.19 196.259 295.074 194.754 294.501 193.027C293.928 191.3 293.928 189.439 294.501 187.712L299.25 173.39C299.648 172.201 299.649 170.918 299.254 169.728C298.859 168.537 298.089 167.5 297.054 166.766L284.618 157.915C283.119 156.848 282.002 155.342 281.43 153.615C280.857 151.888 280.857 150.027 281.43 148.3C282.003 146.573 283.119 145.068 284.619 144C286.119 142.933 287.925 142.358 289.779 142.358H305.15C306.427 142.36 307.672 141.965 308.706 141.229C309.74 140.494 310.508 139.456 310.901 138.265L315.651 123.943C316.223 122.216 317.34 120.71 318.84 119.643C320.34 118.575 322.146 118 324 118C325.854 118 327.66 118.575 329.16 119.643C330.66 120.71 331.777 122.216 332.349 123.943L337.099 138.265C337.492 139.456 338.26 140.494 339.294 141.229C340.327 141.965 341.573 142.36 342.85 142.358H358.221C360.075 142.358 361.882 142.933 363.381 144C364.881 145.068 365.997 146.573 366.57 148.3C367.143 150.027 367.143 151.888 366.57 153.615C365.998 155.342 364.881 156.848 363.382 157.915L350.946 166.766C349.911 167.5 349.141 168.537 348.746 169.728C348.351 170.918 348.352 172.201 348.75 173.39L353.499 187.712C354.093 189.437 354.103 191.304 353.529 193.036C352.955 194.768 351.826 196.272 350.31 197.326C348.815 198.406 347.008 198.993 345.15 199Z" fill="#FFC942"/>
<path d="M347.614 265.652C345.776 265.715 343.939 265.778 342.102 265.778C311.756 265.778 283.185 253.82 261.772 231.992C240.295 210.227 228.512 181.312 228.512 150.499C228.512 132.973 232.376 116.016 239.598 100.705C241.562 96.529 245.49 90.2019 248.214 85.8995C249.418 84.0646 247.897 81.6603 245.743 82.04C241.942 82.6094 236.114 83.8748 228.195 86.3424C178.907 101.97 144 148.285 144 202.887C144 270.334 197.913 325 264.432 325C301.177 325 334.12 308.296 356.23 281.913C360.031 277.357 363.515 273.181 366.619 268.12C367.76 266.221 366.176 263.88 364.022 264.26C358.637 265.336 353.189 265.399 347.614 265.652Z" fill="#FFC942"/>
<path d="M125.696 393.508C125.696 394.876 125.864 396.124 126.2 397.252C126.536 398.356 127.016 399.304 127.64 400.096C128.288 400.864 129.068 401.464 129.98 401.896C130.892 402.328 131.924 402.544 133.076 402.544C134.204 402.544 135.224 402.328 136.136 401.896C137.048 401.464 137.816 400.864 138.44 400.096C139.088 399.304 139.58 398.356 139.916 397.252C140.252 396.124 140.42 394.876 140.42 393.508C140.42 392.14 140.252 390.904 139.916 389.8C139.58 388.672 139.088 387.724 138.44 386.956C137.816 386.164 137.048 385.552 136.136 385.12C135.224 384.688 134.204 384.472 133.076 384.472C131.924 384.472 130.892 384.688 129.98 385.12C129.068 385.552 128.288 386.164 127.64 386.956C127.016 387.748 126.536 388.696 126.2 389.8C125.864 390.904 125.696 392.14 125.696 393.508ZM145.172 393.508C145.172 395.644 144.848 397.528 144.2 399.16C143.576 400.792 142.712 402.16 141.608 403.264C140.528 404.344 139.256 405.16 137.792 405.712C136.328 406.264 134.768 406.54 133.112 406.54C131.456 406.54 129.884 406.264 128.396 405.712C126.932 405.16 125.648 404.344 124.544 403.264C123.464 402.16 122.6 400.792 121.952 399.16C121.304 397.528 120.98 395.644 120.98 393.508C120.98 391.372 121.304 389.5 121.952 387.892C122.6 386.26 123.476 384.892 124.58 383.788C125.708 382.684 127.004 381.856 128.468 381.304C129.932 380.752 131.48 380.476 133.112 380.476C134.744 380.476 136.292 380.752 137.756 381.304C139.22 381.856 140.492 382.684 141.572 383.788C142.676 384.892 143.552 386.26 144.2 387.892C144.848 389.5 145.172 391.372 145.172 393.508ZM162.424 396.676C162.424 394.732 161.98 393.22 161.092 392.14C160.228 391.06 158.824 390.52 156.88 390.52C156.472 390.52 156.04 390.544 155.584 390.592C155.152 390.616 154.72 390.688 154.288 390.808V401.572C154.672 401.836 155.176 402.088 155.8 402.328C156.448 402.544 157.132 402.652 157.852 402.652C159.436 402.652 160.588 402.112 161.308 401.032C162.052 399.952 162.424 398.5 162.424 396.676ZM166.888 396.604C166.888 398.044 166.696 399.364 166.312 400.564C165.952 401.764 165.424 402.796 164.728 403.66C164.032 404.524 163.156 405.196 162.1 405.676C161.068 406.156 159.892 406.396 158.572 406.396C157.684 406.396 156.868 406.288 156.124 406.072C155.38 405.856 154.768 405.616 154.288 405.352V412.66H149.932V387.784C150.82 387.544 151.912 387.316 153.208 387.1C154.504 386.884 155.872 386.776 157.312 386.776C158.8 386.776 160.132 387.004 161.308 387.46C162.484 387.916 163.48 388.576 164.296 389.44C165.136 390.28 165.772 391.312 166.204 392.536C166.66 393.736 166.888 395.092 166.888 396.604ZM170.333 396.676C170.333 395.02 170.573 393.568 171.053 392.32C171.557 391.072 172.217 390.04 173.033 389.224C173.849 388.384 174.785 387.76 175.841 387.352C176.897 386.92 177.977 386.704 179.081 386.704C181.673 386.704 183.689 387.508 185.129 389.116C186.593 390.724 187.325 393.124 187.325 396.316C187.325 396.556 187.313 396.832 187.289 397.144C187.289 397.432 187.277 397.696 187.253 397.936H174.833C174.953 399.448 175.481 400.624 176.417 401.464C177.377 402.28 178.757 402.688 180.557 402.688C181.613 402.688 182.573 402.592 183.437 402.4C184.325 402.208 185.021 402.004 185.525 401.788L186.101 405.352C185.861 405.472 185.525 405.604 185.093 405.748C184.685 405.868 184.205 405.976 183.653 406.072C183.125 406.192 182.549 406.288 181.925 406.36C181.301 406.432 180.665 406.468 180.017 406.468C178.361 406.468 176.921 406.228 175.697 405.748C174.473 405.244 173.465 404.56 172.673 403.696C171.881 402.808 171.293 401.776 170.909 400.6C170.525 399.4 170.333 398.092 170.333 396.676ZM182.969 394.732C182.969 394.132 182.885 393.568 182.717 393.04C182.549 392.488 182.297 392.02 181.961 391.636C181.649 391.228 181.253 390.916 180.773 390.7C180.317 390.46 179.765 390.34 179.117 390.34C178.445 390.34 177.857 390.472 177.353 390.736C176.849 390.976 176.417 391.3 176.057 391.708C175.721 392.116 175.457 392.584 175.265 393.112C175.073 393.64 174.941 394.18 174.869 394.732H182.969ZM191.944 387.784C192.784 387.544 193.876 387.316 195.22 387.1C196.564 386.884 198.052 386.776 199.684 386.776C201.22 386.776 202.504 386.992 203.536 387.424C204.568 387.832 205.384 388.42 205.984 389.188C206.608 389.932 207.04 390.844 207.28 391.924C207.544 392.98 207.676 394.144 207.676 395.416V406H203.32V396.1C203.32 395.092 203.248 394.24 203.104 393.544C202.984 392.824 202.768 392.248 202.456 391.816C202.168 391.36 201.76 391.036 201.232 390.844C200.728 390.628 200.104 390.52 199.36 390.52C198.808 390.52 198.232 390.556 197.632 390.628C197.032 390.7 196.588 390.76 196.3 390.808V406H191.944V387.784ZM213.218 381.052H217.754V406H213.218V381.052ZM228.23 402.868C229.382 402.868 230.222 402.736 230.75 402.472C231.278 402.184 231.542 401.704 231.542 401.032C231.542 400.408 231.254 399.892 230.678 399.484C230.126 399.076 229.202 398.632 227.906 398.152C227.114 397.864 226.382 397.564 225.71 397.252C225.062 396.916 224.498 396.532 224.018 396.1C223.538 395.668 223.154 395.152 222.866 394.552C222.602 393.928 222.47 393.172 222.47 392.284C222.47 390.556 223.106 389.2 224.378 388.216C225.65 387.208 227.378 386.704 229.562 386.704C230.666 386.704 231.722 386.812 232.73 387.028C233.738 387.22 234.494 387.412 234.998 387.604L234.206 391.132C233.726 390.916 233.114 390.724 232.37 390.556C231.626 390.364 230.762 390.268 229.778 390.268C228.89 390.268 228.17 390.424 227.618 390.736C227.066 391.024 226.79 391.48 226.79 392.104C226.79 392.416 226.838 392.692 226.934 392.932C227.054 393.172 227.246 393.4 227.51 393.616C227.774 393.808 228.122 394.012 228.554 394.228C228.986 394.42 229.514 394.624 230.138 394.84C231.17 395.224 232.046 395.608 232.766 395.992C233.486 396.352 234.074 396.772 234.53 397.252C235.01 397.708 235.358 398.236 235.574 398.836C235.79 399.436 235.898 400.156 235.898 400.996C235.898 402.796 235.226 404.164 233.882 405.1C232.562 406.012 230.666 406.468 228.194 406.468C226.538 406.468 225.206 406.324 224.198 406.036C223.19 405.772 222.482 405.556 222.074 405.388L222.83 401.752C223.478 402.016 224.246 402.268 225.134 402.508C226.046 402.748 227.078 402.868 228.23 402.868ZM246.519 406.36C245.223 406.336 244.143 406.192 243.279 405.928C242.439 405.664 241.767 405.292 241.263 404.812C240.759 404.308 240.399 403.696 240.183 402.976C239.991 402.232 239.895 401.392 239.895 400.456V378.784L244.251 378.064V399.628C244.251 400.156 244.287 400.6 244.359 400.96C244.455 401.32 244.611 401.632 244.827 401.896C245.043 402.136 245.331 402.328 245.691 402.472C246.075 402.592 246.555 402.688 247.131 402.76L246.519 406.36ZM257.279 402.94C258.623 402.94 259.643 402.868 260.339 402.724V397.9C260.099 397.828 259.751 397.756 259.295 397.684C258.839 397.612 258.335 397.576 257.783 397.576C257.303 397.576 256.811 397.612 256.307 397.684C255.827 397.756 255.383 397.888 254.975 398.08C254.591 398.272 254.279 398.548 254.039 398.908C253.799 399.244 253.679 399.676 253.679 400.204C253.679 401.236 254.003 401.956 254.651 402.364C255.299 402.748 256.175 402.94 257.279 402.94ZM256.919 386.704C258.359 386.704 259.571 386.884 260.555 387.244C261.539 387.604 262.319 388.108 262.895 388.756C263.495 389.404 263.915 390.196 264.155 391.132C264.419 392.044 264.551 393.052 264.551 394.156V405.568C263.879 405.712 262.859 405.88 261.491 406.072C260.147 406.288 258.623 406.396 256.919 406.396C255.791 406.396 254.759 406.288 253.823 406.072C252.887 405.856 252.083 405.508 251.411 405.028C250.763 404.548 250.247 403.924 249.863 403.156C249.503 402.388 249.323 401.44 249.323 400.312C249.323 399.232 249.527 398.32 249.935 397.576C250.367 396.832 250.943 396.232 251.663 395.776C252.383 395.296 253.211 394.96 254.147 394.768C255.107 394.552 256.103 394.444 257.135 394.444C257.615 394.444 258.119 394.48 258.647 394.552C259.175 394.6 259.739 394.696 260.339 394.84V394.12C260.339 393.616 260.279 393.136 260.159 392.68C260.039 392.224 259.823 391.828 259.511 391.492C259.223 391.132 258.827 390.856 258.323 390.664C257.843 390.472 257.231 390.376 256.487 390.376C255.479 390.376 254.555 390.448 253.715 390.592C252.875 390.736 252.191 390.904 251.663 391.096L251.123 387.568C251.675 387.376 252.479 387.184 253.535 386.992C254.591 386.8 255.719 386.704 256.919 386.704ZM280.613 396.1C280.613 394.132 280.361 392.716 279.857 391.852C279.377 390.964 278.465 390.52 277.121 390.52C276.641 390.52 276.113 390.556 275.537 390.628C274.961 390.7 274.529 390.76 274.241 390.808V406H269.885V387.784C270.725 387.544 271.817 387.316 273.161 387.1C274.529 386.884 275.969 386.776 277.481 386.776C278.777 386.776 279.833 386.944 280.649 387.28C281.489 387.616 282.185 388.06 282.737 388.612C283.001 388.42 283.337 388.216 283.745 388C284.153 387.784 284.609 387.592 285.113 387.424C285.617 387.232 286.145 387.076 286.697 386.956C287.273 386.836 287.849 386.776 288.425 386.776C289.889 386.776 291.089 386.992 292.025 387.424C292.985 387.832 293.729 388.42 294.257 389.188C294.809 389.932 295.181 390.844 295.373 391.924C295.589 392.98 295.697 394.144 295.697 395.416V406H291.341V396.1C291.341 394.132 291.101 392.716 290.621 391.852C290.141 390.964 289.217 390.52 287.849 390.52C287.153 390.52 286.493 390.64 285.869 390.88C285.245 391.096 284.777 391.312 284.465 391.528C284.657 392.128 284.789 392.764 284.861 393.436C284.933 394.108 284.969 394.828 284.969 395.596V406H280.613V396.1ZM305.426 406H301.07V387.172H305.426V406ZM305.894 381.664C305.894 382.48 305.63 383.128 305.102 383.608C304.574 384.088 303.95 384.328 303.23 384.328C302.486 384.328 301.85 384.088 301.322 383.608C300.794 383.128 300.53 382.48 300.53 381.664C300.53 380.824 300.794 380.164 301.322 379.684C301.85 379.204 302.486 378.964 303.23 378.964C303.95 378.964 304.574 379.204 305.102 379.684C305.63 380.164 305.894 380.824 305.894 381.664ZM309.939 396.604C309.939 395.212 310.155 393.916 310.587 392.716C311.019 391.492 311.631 390.436 312.423 389.548C313.239 388.66 314.223 387.964 315.375 387.46C316.527 386.956 317.823 386.704 319.263 386.704C321.039 386.704 322.719 387.028 324.303 387.676L323.367 391.24C322.863 391.024 322.287 390.844 321.639 390.7C321.015 390.556 320.343 390.484 319.623 390.484C317.919 390.484 316.623 391.024 315.735 392.104C314.847 393.16 314.403 394.66 314.403 396.604C314.403 398.476 314.823 399.964 315.663 401.068C316.503 402.148 317.919 402.688 319.911 402.688C320.655 402.688 321.387 402.616 322.107 402.472C322.827 402.328 323.451 402.148 323.979 401.932L324.591 405.532C324.111 405.772 323.379 405.988 322.395 406.18C321.435 406.372 320.439 406.468 319.407 406.468C317.799 406.468 316.395 406.228 315.195 405.748C314.019 405.244 313.035 404.56 312.243 403.696C311.475 402.808 310.899 401.764 310.515 400.564C310.131 399.34 309.939 398.02 309.939 396.604ZM344.739 406C344.403 405.016 344.055 404.044 343.695 403.084C343.335 402.124 342.987 401.14 342.651 400.132H332.139C331.803 401.14 331.455 402.136 331.095 403.12C330.759 404.08 330.423 405.04 330.087 406H325.371C326.307 403.336 327.195 400.876 328.035 398.62C328.875 396.364 329.691 394.228 330.483 392.212C331.299 390.196 332.103 388.276 332.895 386.452C333.687 384.628 334.503 382.828 335.343 381.052H339.627C340.467 382.828 341.283 384.628 342.075 386.452C342.867 388.276 343.659 390.196 344.451 392.212C345.267 394.228 346.095 396.364 346.935 398.62C347.799 400.876 348.699 403.336 349.635 406H344.739ZM337.395 385.876C336.843 387.148 336.207 388.696 335.487 390.52C334.791 392.344 334.059 394.324 333.291 396.46H341.499C340.731 394.324 339.987 392.332 339.267 390.484C338.547 388.636 337.923 387.1 337.395 385.876ZM365.065 396.676C365.065 394.732 364.621 393.22 363.733 392.14C362.869 391.06 361.465 390.52 359.521 390.52C359.113 390.52 358.681 390.544 358.225 390.592C357.793 390.616 357.361 390.688 356.929 390.808V401.572C357.313 401.836 357.817 402.088 358.441 402.328C359.089 402.544 359.773 402.652 360.493 402.652C362.077 402.652 363.229 402.112 363.949 401.032C364.693 399.952 365.065 398.5 365.065 396.676ZM369.529 396.604C369.529 398.044 369.337 399.364 368.953 400.564C368.593 401.764 368.065 402.796 367.369 403.66C366.673 404.524 365.797 405.196 364.741 405.676C363.709 406.156 362.533 406.396 361.213 406.396C360.325 406.396 359.509 406.288 358.765 406.072C358.021 405.856 357.409 405.616 356.929 405.352V412.66H352.573V387.784C353.461 387.544 354.553 387.316 355.849 387.1C357.145 386.884 358.513 386.776 359.953 386.776C361.441 386.776 362.773 387.004 363.949 387.46C365.125 387.916 366.121 388.576 366.937 389.44C367.777 390.28 368.413 391.312 368.845 392.536C369.301 393.736 369.529 395.092 369.529 396.604ZM386.51 396.676C386.51 394.732 386.066 393.22 385.178 392.14C384.314 391.06 382.91 390.52 380.966 390.52C380.558 390.52 380.126 390.544 379.67 390.592C379.238 390.616 378.806 390.688 378.374 390.808V401.572C378.758 401.836 379.262 402.088 379.886 402.328C380.534 402.544 381.218 402.652 381.938 402.652C383.522 402.652 384.674 402.112 385.394 401.032C386.138 399.952 386.51 398.5 386.51 396.676ZM390.974 396.604C390.974 398.044 390.782 399.364 390.398 400.564C390.038 401.764 389.51 402.796 388.814 403.66C388.118 404.524 387.242 405.196 386.186 405.676C385.154 406.156 383.978 406.396 382.658 406.396C381.77 406.396 380.954 406.288 380.21 406.072C379.466 405.856 378.854 405.616 378.374 405.352V412.66H374.018V387.784C374.906 387.544 375.998 387.316 377.294 387.1C378.59 386.884 379.958 386.776 381.398 386.776C382.886 386.776 384.218 387.004 385.394 387.46C386.57 387.916 387.566 388.576 388.382 389.44C389.222 390.28 389.858 391.312 390.29 392.536C390.746 393.736 390.974 395.092 390.974 396.604Z" fill="#FFC942"/>
</svg>
